<svg width="25" height="24" viewBox="0 0 25 24" fill="none" xmlns="http://www.w3.org/2000/svg">
<path d="M17.1963 20.9998C15.5426 20.9983 13.9146 20.5896 12.4563 19.8098L12.0063 19.5598C8.89704 17.8881 6.34798 15.339 4.67629 12.2298L4.42629 11.7798C3.62611 10.3132 3.20342 8.67048 3.19629 6.99978V6.32978C3.19587 5.79674 3.40825 5.28558 3.78629 4.90978L5.47629 3.21978C5.64042 3.05438 5.8721 2.97466 6.10325 3.00404C6.3344 3.03342 6.53877 3.16858 6.65629 3.36978L8.90629 7.22978C9.13382 7.62267 9.06812 8.11954 8.74629 8.43978L6.85629 10.3298C6.69933 10.485 6.66276 10.7248 6.76629 10.9198L7.11629 11.5798C8.37333 13.9082 10.2856 15.817 12.6163 17.0698L13.2763 17.4298C13.4713 17.5333 13.7111 17.4967 13.8663 17.3398L15.7563 15.4498C16.0765 15.128 16.5734 15.0623 16.9663 15.2898L20.8263 17.5398C21.0275 17.6573 21.1627 17.8617 21.192 18.0928C21.2214 18.324 21.1417 18.5557 20.9763 18.7198L19.2863 20.4098C18.9105 20.7878 18.3993 21.0002 17.8663 20.9998H17.1963Z" fill="#F3EA28"/>
</svg>
