<svg width="25" height="24" viewBox="0 0 25 24" fill="none" xmlns="http://www.w3.org/2000/svg">
<path d="M12.1964 2C8.20241 2 4.95312 5.2493 4.95312 9.2432C4.95312 14.1998 11.4351 21.4763 11.7111 21.7836C11.9703 22.0723 12.4229 22.0718 12.6817 21.7836C12.9576 21.4763 19.4396 14.1998 19.4396 9.2432C19.4395 5.2493 16.1903 2 12.1964 2ZM12.1964 12.8875C10.1869 12.8875 8.55214 11.2527 8.55214 9.2432C8.55214 7.23375 10.1869 5.59898 12.1964 5.59898C14.2058 5.59898 15.8406 7.23379 15.8406 9.24324C15.8406 11.2527 14.2058 12.8875 12.1964 12.8875Z" fill="#F3EA28"/>
</svg>
